<svg xmlns="http://www.w3.org/2000/svg" viewBox="0 0 4000 1024"><title>Artboard 1</title><rect width="1024" height="1024" fill="#fff"/><rect x="101.37" y="214.87" width="101.19" height="809.13" fill="#be202e"/><rect x="245.98" y="516.98" width="101.19" height="507.02" fill="#f69321"/><rect x="390.59" y="371.96" width="101.19" height="652.04" fill="#2e368f"/><rect x="535.2" y="304.64" width="101.19" height="719.36" fill="#26abe2"/><rect x="679.81" y="704.42" width="101.19" height="319.58" fill="#059347"/><rect x="824.42" y="460" width="101.19" height="564" fill="#8ec540"/><path d="M1290.07,245.37c-36.19,0-64.63,27.91-64.63,63.59s28.44,63.85,64.63,63.85c18.09,0,36.7-8.28,50.4-21.46l18.1,20.16c-18.36,18.1-44.46,29.73-70,29.73-53,0-94.1-40.07-94.1-92,0-51.45,41.62-91,95.13-91,25.59,0,51.18,10.6,68.76,27.92l-17.84,22.23C1327.29,254.16,1308.42,245.37,1290.07,245.37Z" fill="#fff"/><path d="M1420.08,219v78.58H1516V219h30.5V400H1516V325h-95.91v75h-30.5V219Z" fill="#fff"/><path d="M1710.89,359.11h-91.25L1602.32,400h-31.8L1650.4,219h31.28l79.1,181h-32.57ZM1699.26,332l-34.13-80.39L1631,332Z" fill="#fff"/><path d="M1821,219l59.72,120.2L1940.17,219h35.93V400h-28.17l-.26-135.2-57.13,116.33h-19.9l-57.13-116.33V400h-28.7V219Z" fill="#fff"/><path d="M2167.64,280.78c0,40.84-26.1,64.63-71.6,64.63h-41.62V400h-30.5V219H2096C2141.54,219,2167.64,241.49,2167.64,280.78Zm-29.21.78c0-23.79-15.77-35.16-43.68-35.16h-40.33V318h40.33C2122.66,318,2138.43,306.11,2138.43,281.56Z" fill="#fff"/><path d="M2303.35,359.11H2212.1L2194.78,400H2163L2242.86,219h31.28l79.1,181h-32.57ZM2291.72,332l-34.12-80.39L2223.47,332Z" fill="#fff"/><path d="M2407.78,219V400h-30.5V219Z" fill="#fff"/><path d="M2579.16,311h26.62v66.69c-18.35,14-45.49,23.52-70.31,23.52-53.51,0-95.13-40.07-95.13-91.77s42.14-91.25,96.94-91.25c25.85,0,51.7,9.83,69.54,25.34l-17.32,22.49a78.63,78.63,0,0,0-52.22-20.68c-37,0-65.92,28.17-65.92,64.1,0,36.19,29.22,64.37,66.18,64.37,13.44,0,28.69-4.65,41.62-12.41Z" fill="#fff"/><path d="M2678.93,219l96.94,130V219h30V400h-30l-96.42-129.77V400H2649V219Z" fill="#fff"/><path d="M3001,245.37c-36.19,0-64.63,27.91-64.63,63.59s28.44,63.85,64.63,63.85c18.09,0,36.7-8.28,50.4-21.46l18.1,20.16c-18.36,18.1-44.46,29.73-70.06,29.73-53,0-94.09-40.07-94.09-92,0-51.45,41.62-91,95.13-91,25.59,0,51.18,10.6,68.76,27.92l-17.84,22.23C3038.24,254.16,3019.37,245.37,3001,245.37Z" fill="#fff"/><path d="M3273.47,309.47c0,51.7-41.88,91.77-95.9,91.77s-95.91-40.07-95.91-91.77c0-52,41.88-91.25,95.91-91.25S3273.47,257.77,3273.47,309.47Zm-160.79,0c0,35.94,29.73,64.37,65.14,64.37a64.2,64.2,0,0,0,64.37-64.37c0-35.93-29-63.85-64.37-63.85C3142.15,245.62,3112.68,273.54,3112.68,309.47Z" fill="#fff"/><path d="M3381.52,373.84c29.46,0,47.82-18.09,47.82-48.86V219h30.5V325c0,47.31-29.73,76.26-78.58,76.26s-78.84-28.95-78.84-76.26V219h30.5V325C3332.92,355.49,3351.79,373.84,3381.52,373.84Z" fill="#fff"/><path d="M3533.51,219l96.94,130V219h30V400h-30L3534,270.18V400h-30.51V219Z" fill="#fff"/><path d="M3831.81,219v27.4h-57.39V400h-30.5V246.4h-57.13V219Z" fill="#fff"/><path d="M3935.21,339.72V400H3905v-59.2L3837.49,219h30.76l51.7,88.15L3970.62,219h31Z" fill="#fff"/><path d="M1324.19,710.14l-33.09-54.8c-2.58.26-5.43.26-8.27.26h-42.91v54.54h-30.51V529.19h73.42c46.27,0,72.89,22.49,72.89,61.78,0,29-13.44,49.38-37.48,58.68l40.59,60.49Zm-41.36-81.94c27.92,0,43.94-11.89,43.94-36.45,0-23.78-16-35.16-43.94-35.16h-42.91V628.2Z" fill="#fff"/><path d="M1525.55,529.19v27.4h-98.74v48.86h88.4v27.4h-88.4v49.89h101.84v27.4H1396.3V529.19Z" fill="#fff"/><path d="M1689.69,621.22h26.63v66.69c-18.35,14-45.5,23.53-70.31,23.53-53.51,0-95.13-40.07-95.13-91.77s42.14-91.25,96.94-91.25c25.85,0,51.7,9.82,69.53,25.33L1700,576.24a78.63,78.63,0,0,0-52.21-20.68c-37,0-65.92,28.18-65.92,64.11,0,36.19,29.21,64.36,66.18,64.36,13.44,0,28.69-4.65,41.61-12.4Z" fill="#fff"/><path d="M1790,529.19V710.14h-30.51V529.19Z" fill="#fff"/><path d="M2014.36,619.67c0,51.7-41.88,91.77-95.9,91.77s-95.91-40.07-95.91-91.77c0-52,41.88-91.25,95.91-91.25S2014.36,568,2014.36,619.67Zm-160.79,0c0,35.93,29.73,64.36,65.14,64.36a64.2,64.2,0,0,0,64.37-64.36c0-35.93-28.95-63.85-64.37-63.85C1883,555.82,1853.57,583.74,1853.57,619.67Z" fill="#fff"/><path d="M2076.91,529.19l96.94,130v-130h30V710.14h-30l-96.42-129.76V710.14h-30.51V529.19Z" fill="#fff"/><path d="M2368.49,669.3h-91.25l-17.32,40.84h-31.79L2308,529.19h31.28l79.1,180.95h-32.57Zm-11.63-27.14-34.12-80.4-34.12,80.4Z" fill="#fff"/><path d="M2472.92,529.19V682.48h78.33v27.66H2442.42V529.19Z" fill="#fff"/><path d="M2814.91,619.67c0,52.21-39.55,90.47-94.36,90.47h-73.41V529.19h74.19C2775.62,529.19,2814.91,567.19,2814.91,619.67Zm-30.76.26c0-37-27.66-63.34-63.34-63.34h-43.17V682.74h44.47C2757.26,682.74,2784.15,656.63,2784.15,619.93Z" fill="#fff"/><path d="M2959.66,669.3h-91.25l-17.32,40.84H2819.3l79.88-180.95h31.27l79.1,180.95H2977ZM2948,642.16l-34.12-80.4-34.12,80.4Z" fill="#fff"/><path d="M3139.32,529.19v27.4h-57.39V710.14h-30.5V556.59H2994.3v-27.4Z" fill="#fff"/><path d="M3264.43,669.3h-91.25l-17.32,40.84h-31.79l79.87-180.95h31.28l79.1,180.95h-32.57Zm-11.63-27.14-34.12-80.4-34.12,80.4Z" fill="#fff"/><path d="M1353.14,901.17c0,40.84-26.11,64.62-71.6,64.62h-41.62v54.54h-30.51V839.39h72.13C1327,839.39,1353.14,861.88,1353.14,901.17Zm-29.21.77c0-23.78-15.77-35.15-43.69-35.15h-40.32v71.6h40.32C1308.16,938.39,1323.93,926.5,1323.93,901.94Z" fill="#fff"/><path d="M1560.19,929.86c0,51.7-41.88,91.77-95.9,91.77s-95.9-40.07-95.9-91.77c0-52,41.87-91.25,95.9-91.25S1560.19,878.16,1560.19,929.86Zm-160.78,0c0,35.93,29.72,64.37,65.14,64.37a64.21,64.21,0,0,0,64.36-64.37c0-35.93-29-63.85-64.36-63.85C1428.87,866,1399.41,893.93,1399.41,929.86Z" fill="#fff"/><path d="M1707.53,1020.33l-33.09-54.8c-2.58.26-5.43.26-8.27.26h-42.91v54.54h-30.5V839.39h73.41c46.27,0,72.9,22.49,72.9,61.78,0,29-13.44,49.37-37.48,58.68l40.58,60.48Zm-41.36-81.94c27.92,0,43.95-11.89,43.95-36.45,0-23.78-16-35.15-43.95-35.15h-42.91v71.6Z" fill="#fff"/><path d="M1903.21,839.39v27.4h-57.39v153.54h-30.5V866.79h-57.13v-27.4Z" fill="#fff"/><path d="M2028.32,979.49h-91.25l-17.32,40.84H1888l79.87-180.94h31.28l79.1,180.94h-32.57Zm-11.63-27.14L1982.57,872l-34.12,80.39Z" fill="#fff"/><path d="M2132.75,839.39V992.68h78.33v27.65H2102.25V839.39Z" fill="#fff"/></svg>